<svg xmlns="http://www.w3.org/2000/svg" width="21" height="10" fill="none"><path fill="#fff" d="M5.376 9.06c-1.544 0-2.748-.364-3.612-1.092C.908 7.232.48 6.144.48 4.704c0-1.432.428-2.512 1.284-3.24C2.628.728 3.832.36 5.376.36h1.56c1.552 0 2.756.368 3.612 1.104.856.728 1.284 1.808 1.284 3.24 0 1.44-.428 2.528-1.284 3.264-.856.728-2.06 1.092-3.612 1.092h-1.56Zm-2.94-4.356c0 .872.212 1.536.636 1.992l4.704-4.692c-.288-.056-.612-.084-.972-.084H5.508c-1.008 0-1.772.22-2.292.66-.52.44-.78 1.148-.78 2.124ZM5.508 7.5h1.296c1.008 0 1.772-.22 2.292-.66.52-.448.78-1.16.78-2.136 0-.872-.216-1.536-.648-1.992L4.512 7.416c.296.056.628.084.996.084ZM12.4364 9l2.328-3.084-2.328-3.084h2.04l1.788 2.388h.876l1.8-2.388h2.028l-2.316 3.084L20.9684 9h-2.028l-1.812-2.4h-.864L14.4764 9h-2.04Z"/></svg>